<?xml version="1.0" encoding="UTF-8"?>
<!DOCTYPE svg PUBLIC "-//W3C//DTD SVG 1.1//EN" "http://www.w3.org/Graphics/SVG/1.1/DTD/svg11.dtd">
<svg xmlns="http://www.w3.org/2000/svg" version="1.1" width="158px" height="157px" style="shape-rendering:geometricPrecision; text-rendering:geometricPrecision; image-rendering:optimizeQuality; fill-rule:evenodd; clip-rule:evenodd" xmlns:xlink="http://www.w3.org/1999/xlink">
<g><path style="opacity:0.851" fill="#4b8e4b" d="M 51.5,3.5 C 51.4226,4.74975 50.756,5.58309 49.5,6C 56.9333,6.62787 64.2666,7.79454 71.5,9.5C 72.086,9.29069 72.586,8.95735 73,8.5C 77.0963,9.09592 81.0963,10.0959 85,11.5C 85.8753,9.48733 87.2087,9.48733 89,11.5C 89.3333,11.1667 89.6667,10.8333 90,10.5C 94.2673,11.2958 98.6006,11.9625 103,12.5C 104.984,12.2587 106.817,11.5921 108.5,10.5C 111.097,10.8525 113.93,11.5192 117,12.5C 118.03,12.1639 118.53,11.4972 118.5,10.5C 121.475,11.6551 124.142,13.3218 126.5,15.5C 127.452,17.1123 127.786,18.6123 127.5,20C 126.638,22.7344 125.805,22.9011 125,20.5C 124.586,20.9574 124.086,21.2907 123.5,21.5C 118.204,19.7243 112.871,19.0577 107.5,19.5C 97.7605,18.2567 88.0939,16.59 78.5,14.5C 73.3704,14.1234 68.2037,14.1234 63,14.5C 58.8132,9.47049 53.8132,8.13715 48,10.5C 46.8288,9.6604 45.6621,8.82706 44.5,8C 45.756,7.58309 46.4226,6.74975 46.5,5.5C 47.9303,4.46253 49.597,3.79586 51.5,3.5 Z"/></g>
<g><path style="opacity:0.878" fill="#428841" d="M 63.5,-0.5 C 73.1667,-0.5 82.8333,-0.5 92.5,-0.5C 98.1869,0.884603 103.854,2.71794 109.5,5C 112.898,6.35706 115.898,8.19039 118.5,10.5C 118.53,11.4972 118.03,12.1639 117,12.5C 113.93,11.5192 111.097,10.8525 108.5,10.5C 106.817,11.5921 104.984,12.2587 103,12.5C 98.6006,11.9625 94.2673,11.2958 90,10.5C 89.6667,10.8333 89.3333,11.1667 89,11.5C 87.2087,9.48733 85.8753,9.48733 85,11.5C 81.0963,10.0959 77.0963,9.09592 73,8.5C 72.586,8.95735 72.086,9.29069 71.5,9.5C 64.2666,7.79454 56.9333,6.62787 49.5,6C 50.756,5.58309 51.4226,4.74975 51.5,3.5C 55.5344,2.0358 59.5344,0.702467 63.5,-0.5 Z"/></g>
<g><path style="opacity:0.821" fill="#549454" d="M 46.5,5.5 C 46.4226,6.74975 45.756,7.58309 44.5,8C 45.6621,8.82706 46.8288,9.6604 48,10.5C 53.8132,8.13715 58.8132,9.47049 63,14.5C 68.2037,14.1234 73.3704,14.1234 78.5,14.5C 88.0939,16.59 97.7605,18.2567 107.5,19.5C 112.871,19.0577 118.204,19.7243 123.5,21.5C 124.086,21.2907 124.586,20.9574 125,20.5C 125.805,22.9011 126.638,22.7344 127.5,20C 127.786,18.6123 127.452,17.1123 126.5,15.5C 128.833,17.1667 130.833,19.1667 132.5,21.5C 132.585,22.9953 131.919,23.9953 130.5,24.5C 128.2,24.1321 126.033,24.1321 124,24.5C 123.333,23.8333 122.667,23.1667 122,22.5C 117.058,21.8914 112.058,21.8914 107,22.5C 106.261,21.4258 105.261,20.7591 104,20.5C 101.649,20.8201 99.3157,21.1535 97,21.5C 91.2587,19.3141 85.2587,17.9808 79,17.5C 73.4082,18.7697 68.0748,18.1031 63,15.5C 59.2414,15.6916 55.5747,15.6916 52,15.5C 51.0411,13.3423 49.5411,13.009 47.5,14.5C 45.9707,14.4712 44.804,13.8045 44,12.5C 43.6924,13.3081 43.1924,13.9747 42.5,14.5C 41.5745,13.3595 40.7412,13.3595 40,14.5C 39.6924,13.6919 39.1924,13.0253 38.5,12.5C 34.8391,13.8234 34.5057,13.1567 37.5,10.5C 40.0078,8.07642 43.0078,6.40975 46.5,5.5 Z"/></g>
<g><path style="opacity:0.791" fill="#5f9b5f" d="M 37.5,10.5 C 34.5057,13.1567 34.8391,13.8234 38.5,12.5C 39.1924,13.0253 39.6924,13.6919 40,14.5C 40.7412,13.3595 41.5745,13.3595 42.5,14.5C 43.1924,13.9747 43.6924,13.3081 44,12.5C 44.804,13.8045 45.9707,14.4712 47.5,14.5C 49.5411,13.009 51.0411,13.3423 52,15.5C 55.5747,15.6916 59.2414,15.6916 63,15.5C 68.0748,18.1031 73.4082,18.7697 79,17.5C 85.2587,17.9808 91.2587,19.3141 97,21.5C 99.3157,21.1535 101.649,20.8201 104,20.5C 105.261,20.7591 106.261,21.4258 107,22.5C 112.058,21.8914 117.058,21.8914 122,22.5C 122.667,23.1667 123.333,23.8333 124,24.5C 126.033,24.1321 128.2,24.1321 130.5,24.5C 131.919,23.9953 132.585,22.9953 132.5,21.5C 134.923,22.9501 136.923,24.9501 138.5,27.5C 138.539,28.5832 138.873,29.5832 139.5,30.5C 136.625,31.0057 133.792,31.339 131,31.5C 128.791,29.2936 126.291,28.9602 123.5,30.5C 122.808,29.9747 122.308,29.3081 122,28.5C 117.678,28.285 113.012,28.285 108,28.5C 106.604,26.4732 104.938,26.1398 103,27.5C 101.333,26.8333 99.6667,26.1667 98,25.5C 96.6012,25.5012 95.1012,25.8346 93.5,26.5C 90.9938,25.4161 88.4938,24.4161 86,23.5C 83.008,23.8752 79.6746,24.2085 76,24.5C 75.3333,23.8333 74.6667,23.1667 74,22.5C 70.4371,21.903 67.1038,21.903 64,22.5C 62.6914,20.1088 61.6914,20.1088 61,22.5C 59.0036,22.0037 57.3369,21.0037 56,19.5C 55.6667,20.1667 55.3333,20.8333 55,21.5C 52.7354,21.5909 50.4021,20.9242 48,19.5C 46.3511,20.8977 45.0178,20.5644 44,18.5C 42.3426,21.16 40.6759,21.16 39,18.5C 37.4626,19.0345 35.9626,19.3678 34.5,19.5C 33.7702,18.0663 32.7702,16.8996 31.5,16C 32.7101,14.9609 33.7101,13.7942 34.5,12.5C 34.9731,11.0937 35.9731,10.427 37.5,10.5 Z"/></g>
<g><path style="opacity:0.758" fill="#6ea46e" d="M 34.5,12.5 C 33.7101,13.7942 32.7101,14.9609 31.5,16C 32.7702,16.8996 33.7702,18.0663 34.5,19.5C 35.9626,19.3678 37.4626,19.0345 39,18.5C 40.6759,21.16 42.3426,21.16 44,18.5C 45.0178,20.5644 46.3511,20.8977 48,19.5C 50.4021,20.9242 52.7354,21.5909 55,21.5C 55.3333,20.8333 55.6667,20.1667 56,19.5C 57.3369,21.0037 59.0036,22.0037 61,22.5C 61.6914,20.1088 62.6914,20.1088 64,22.5C 67.1038,21.903 70.4371,21.903 74,22.5C 74.6667,23.1667 75.3333,23.8333 76,24.5C 79.6746,24.2085 83.008,23.8752 86,23.5C 88.4938,24.4161 90.9938,25.4161 93.5,26.5C 95.1012,25.8346 96.6012,25.5012 98,25.5C 99.6667,26.1667 101.333,26.8333 103,27.5C 104.938,26.1398 106.604,26.4732 108,28.5C 113.012,28.285 117.678,28.285 122,28.5C 122.308,29.3081 122.808,29.9747 123.5,30.5C 126.291,28.9602 128.791,29.2936 131,31.5C 133.792,31.339 136.625,31.0057 139.5,30.5C 138.873,29.5832 138.539,28.5832 138.5,27.5C 140.984,29.8003 142.984,32.4669 144.5,35.5C 145.974,37.9269 145.807,40.2602 144,42.5C 142.604,40.4732 140.938,40.1398 139,41.5C 137.691,39.1088 136.691,39.1088 136,41.5C 133.676,40.1552 131.342,39.8218 129,40.5C 128.333,39.8333 127.667,39.1667 127,38.5C 125.467,38.9437 123.967,39.277 122.5,39.5C 117.927,38.7293 113.427,37.7293 109,36.5C 107.644,37.3802 106.144,37.7135 104.5,37.5C 104.657,36.1266 104.49,34.7932 104,33.5C 103.667,33.8333 103.333,34.1667 103,34.5C 101.333,33.1667 99.6667,31.8333 98,30.5C 93.4124,31.5526 88.9124,32.5526 84.5,33.5C 84.1667,33.5 83.8333,33.5 83.5,33.5C 82.1286,32.2132 80.2953,31.5465 78,31.5C 72.7742,31.8823 67.6076,32.549 62.5,33.5C 61.9232,31.3484 60.7565,31.015 59,32.5C 57.2467,31.373 55.4134,30.373 53.5,29.5C 52.1841,32.028 51.0174,32.028 50,29.5C 48.3333,29.8333 46.6667,30.1667 45,30.5C 44.3333,29.8333 43.6667,29.1667 43,28.5C 37.8649,28.455 32.6982,28.455 27.5,28.5C 26.8076,27.9747 26.3076,27.3081 26,26.5C 23.3911,27.9085 21.5578,27.2418 20.5,24.5C 24.2781,19.383 28.9448,15.383 34.5,12.5 Z"/></g>
<g><path style="opacity:0.727" fill="#7faf7f" d="M 20.5,24.5 C 21.5578,27.2418 23.3911,27.9085 26,26.5C 26.3076,27.3081 26.8076,27.9747 27.5,28.5C 32.6982,28.455 37.8649,28.455 43,28.5C 43.6667,29.1667 44.3333,29.8333 45,30.5C 46.6667,30.1667 48.3333,29.8333 50,29.5C 51.0174,32.028 52.1841,32.028 53.5,29.5C 55.4134,30.373 57.2467,31.373 59,32.5C 60.7565,31.015 61.9232,31.3484 62.5,33.5C 61.3065,34.2719 60.3065,35.2719 59.5,36.5C 59.1667,36.5 58.8333,36.5 58.5,36.5C 54.5777,37.5894 50.7443,37.2561 47,35.5C 46.1667,36.3333 45.3333,37.1667 44.5,38C 45.9561,38.4226 46.4561,39.2559 46,40.5C 35.4421,38.3758 24.9421,36.8758 14.5,36C 13.5868,34.5861 13.5868,33.0861 14.5,31.5C 15.7805,28.5526 17.7805,26.2193 20.5,24.5 Z"/></g>
<g><path style="opacity:0.176" fill="#b6d1b6" d="M 83.5,33.5 C 75.286,32.5267 67.286,33.5267 59.5,36.5C 60.3065,35.2719 61.3065,34.2719 62.5,33.5C 67.6076,32.549 72.7742,31.8823 78,31.5C 80.2953,31.5465 82.1286,32.2132 83.5,33.5 Z"/></g>
<g><path style="opacity:0.708" fill="#81b080" d="M 144.5,35.5 C 147.328,38.6751 149.328,42.3418 150.5,46.5C 150.719,47.675 150.386,48.675 149.5,49.5C 148.5,48.1667 147.5,48.1667 146.5,49.5C 145.808,48.9747 145.308,48.3081 145,47.5C 143.467,47.9437 141.967,48.277 140.5,48.5C 138.902,46.0266 137.402,46.0266 136,48.5C 134.759,46.3605 133.093,46.0271 131,47.5C 127.363,46.4514 123.696,45.4514 120,44.5C 116.151,44.6004 112.317,44.6004 108.5,44.5C 101.777,38.14 93.7772,34.4733 84.5,33.5C 88.9124,32.5526 93.4124,31.5526 98,30.5C 99.6667,31.8333 101.333,33.1667 103,34.5C 103.333,34.1667 103.667,33.8333 104,33.5C 104.49,34.7932 104.657,36.1266 104.5,37.5C 106.144,37.7135 107.644,37.3802 109,36.5C 113.427,37.7293 117.927,38.7293 122.5,39.5C 123.967,39.277 125.467,38.9437 127,38.5C 127.667,39.1667 128.333,39.8333 129,40.5C 131.342,39.8218 133.676,40.1552 136,41.5C 136.691,39.1088 137.691,39.1088 139,41.5C 140.938,40.1398 142.604,40.4732 144,42.5C 145.807,40.2602 145.974,37.9269 144.5,35.5 Z"/></g>
<g><path style="opacity:0.637" fill="#97be97" d="M 14.5,31.5 C 13.5868,33.0861 13.5868,34.5861 14.5,36C 24.9421,36.8758 35.4421,38.3758 46,40.5C 46.4561,39.2559 45.9561,38.4226 44.5,38C 45.3333,37.1667 46.1667,36.3333 47,35.5C 50.7443,37.2561 54.5777,37.5894 58.5,36.5C 52.9475,39.7095 47.9475,43.7095 43.5,48.5C 42.1266,48.3433 40.7932,48.51 39.5,49C 40.6956,49.6543 40.6956,50.1543 39.5,50.5C 37.4055,48.4106 35.5721,48.4106 34,50.5C 31.8119,47.7863 29.1452,47.1196 26,48.5C 25.3333,47.8333 24.6667,47.1667 24,46.5C 21,46.8333 18,47.1667 15,47.5C 13.2834,44.1287 10.9501,43.7953 8,46.5C 7.50999,45.2068 7.34332,43.8734 7.5,42.5C 9.08747,38.3171 11.4208,34.6505 14.5,31.5 Z"/></g>
<g><path style="opacity:0.023" fill="#f0f7f1" d="M 76.5,43.5 C 79.0804,41.9844 81.0804,42.6511 82.5,45.5C 80.6854,44.3702 78.6854,43.7036 76.5,43.5 Z"/></g>
<g><path style="opacity:0.051" fill="#f0f7f0" d="M 82.5,45.5 C 84.7488,46.0798 86.4154,47.4131 87.5,49.5C 85.2512,48.9202 83.5846,47.5869 82.5,45.5 Z"/></g>
<g><path style="opacity:0.673" fill="#8db88d" d="M 108.5,44.5 C 112.317,44.6004 116.151,44.6004 120,44.5C 123.696,45.4514 127.363,46.4514 131,47.5C 133.093,46.0271 134.759,46.3605 136,48.5C 137.402,46.0266 138.902,46.0266 140.5,48.5C 141.967,48.277 143.467,47.9437 145,47.5C 145.308,48.3081 145.808,48.9747 146.5,49.5C 147.5,48.1667 148.5,48.1667 149.5,49.5C 150.386,48.675 150.719,47.675 150.5,46.5C 151.338,46.8417 151.672,47.5084 151.5,48.5C 151.782,51.9097 152.449,55.243 153.5,58.5C 144.291,59.2441 134.958,58.2441 125.5,55.5C 124.833,55.8333 124.167,56.1667 123.5,56.5C 121.541,55.2519 120.041,53.5852 119,51.5C 118.586,51.9574 118.086,52.2907 117.5,52.5C 116.664,50.0602 114.997,48.7268 112.5,48.5C 110.833,47.5 109.5,46.1667 108.5,44.5 Z"/></g>
<g><path style="opacity:0.577" fill="#abcbab" d="M 7.5,42.5 C 7.34332,43.8734 7.50999,45.2068 8,46.5C 10.9501,43.7953 13.2834,44.1287 15,47.5C 18,47.1667 21,46.8333 24,46.5C 24.6667,47.1667 25.3333,47.8333 26,48.5C 29.1452,47.1196 31.8119,47.7863 34,50.5C 35.5721,48.4106 37.4055,48.4106 39.5,50.5C 40.6956,50.1543 40.6956,49.6543 39.5,49C 40.7932,48.51 42.1266,48.3433 43.5,48.5C 40.917,51.9974 38.5836,55.6641 36.5,59.5C 34.6098,61.5901 32.9431,63.9235 31.5,66.5C 29.3224,63.436 26.8224,62.7694 24,64.5C 21.5867,63.9761 19.4201,62.9761 17.5,61.5C 15.3878,62.4084 13.0545,62.4084 10.5,61.5C 9.00551,61.7092 7.83884,62.3759 7,63.5C 6.68507,60.8532 5.5184,60.1865 3.5,61.5C 3.16667,60.5 2.83333,59.5 2.5,58.5C 3.46985,55.5627 4.13651,52.5627 4.5,49.5C 4.70732,46.7594 5.70732,44.4261 7.5,42.5 Z"/></g>
<g><path style="opacity:0.024" fill="#e8f2e9" d="M 87.5,49.5 C 90.1092,50.4431 92.1092,52.1097 93.5,54.5C 90.865,53.5265 88.865,51.8598 87.5,49.5 Z"/></g>
<g><path style="opacity:0.012" fill="#e0efe1" d="M 93.5,54.5 C 96.1092,55.4431 98.1092,57.1097 99.5,59.5C 96.865,58.5265 94.865,56.8598 93.5,54.5 Z"/></g>
<g><path style="opacity:0.173" fill="#e4f0e4" d="M 76.5,43.5 C 66.8189,52.6768 56.6523,61.3434 46,69.5C 44.9764,74.4518 46.4764,78.4518 50.5,81.5C 44.9356,78.9359 43.1023,74.6026 45,68.5C 55.3938,59.9291 65.8938,51.5957 76.5,43.5 Z"/></g>
<g><path style="opacity:0.051" fill="#f1f6f1" d="M 99.5,59.5 C 101.749,60.0798 103.415,61.4131 104.5,63.5C 102.251,62.9202 100.585,61.5869 99.5,59.5 Z"/></g>
<g><path style="opacity:0.505" fill="#c0d8c0" d="M 4.5,49.5 C 4.13651,52.5627 3.46985,55.5627 2.5,58.5C 2.83333,59.5 3.16667,60.5 3.5,61.5C 5.5184,60.1865 6.68507,60.8532 7,63.5C 7.83884,62.3759 9.00551,61.7092 10.5,61.5C 13.0545,62.4084 15.3878,62.4084 17.5,61.5C 19.4201,62.9761 21.5867,63.9761 24,64.5C 26.8224,62.7694 29.3224,63.436 31.5,66.5C 32.9431,63.9235 34.6098,61.5901 36.5,59.5C 34.8816,63.6889 33.8816,68.0223 33.5,72.5C 31.8356,73.9488 31.0023,75.9488 31,78.5C 30.5488,76.0712 29.7155,75.9045 28.5,78C 25.2027,77.8248 22.3693,77.9915 20,78.5C 18.3987,73.6993 16.2321,73.3659 13.5,77.5C 11.7419,76.8721 10.2419,75.8721 9,74.5C 7.20149,74.7205 5.36816,75.0539 3.5,75.5C 1.48845,74.5475 0.488447,72.8809 0.5,70.5C 1.11621,66.8548 1.44954,63.1881 1.5,59.5C 1.32003,55.7144 2.32003,52.381 4.5,49.5 Z"/></g>
<g><path style="opacity:0.635" fill="#6aa260" d="M 76.5,43.5 C 78.6854,43.7036 80.6854,44.3702 82.5,45.5C 83.5846,47.5869 85.2512,48.9202 87.5,49.5C 88.865,51.8598 90.865,53.5265 93.5,54.5C 94.865,56.8598 96.865,58.5265 99.5,59.5C 100.585,61.5869 102.251,62.9202 104.5,63.5C 106.411,65.9171 108.578,68.2504 111,70.5C 111.667,71.8333 111.667,73.1667 111,74.5C 109.906,76.0779 109.072,77.7446 108.5,79.5C 106.118,81.0461 103.451,81.7128 100.5,81.5C 100.027,80.0937 99.0269,79.427 97.5,79.5C 97.0269,78.0937 96.0269,77.427 94.5,77.5C 93.7377,75.7376 92.4044,74.7376 90.5,74.5C 90.0269,73.0937 89.0269,72.427 87.5,72.5C 86.7377,70.7376 85.4044,69.7376 83.5,69.5C 83.0269,68.0937 82.0269,67.427 80.5,67.5C 79.9032,66.8614 79.0698,66.528 78,66.5C 76.3009,66.3866 75.1342,67.0532 74.5,68.5C 74.5,69.1667 74.1667,69.5 73.5,69.5C 71.9731,69.427 70.9731,70.0937 70.5,71.5C 68.9731,71.427 67.9731,72.0937 67.5,73.5C 63.6082,75.0621 60.2749,77.3954 57.5,80.5C 55.2362,81.2186 52.9029,81.552 50.5,81.5C 46.4764,78.4518 44.9764,74.4518 46,69.5C 56.6523,61.3434 66.8189,52.6768 76.5,43.5 Z"/></g>
<g><path style="opacity:1" fill="#a14014" d="M 90.5,55.5 C 95.1518,58.8207 99.4851,62.4874 103.5,66.5C 101.742,67.9985 99.9088,68.3319 98,67.5C 95.4602,68.7675 93.2935,70.4342 91.5,72.5C 87.8621,70.01 84.1955,67.51 80.5,65C 78.8333,64.3333 77.1667,64.3333 75.5,65C 68.3052,70.3611 60.9719,75.5278 53.5,80.5C 49.5158,79.0166 47.1824,76.1833 46.5,72C 49.3505,68.6535 52.6838,65.8202 56.5,63.5C 58.0861,62.5868 59.5861,62.5868 61,63.5C 61.6667,62.1667 62.6667,61.1667 64,60.5C 65.1011,62.3939 66.4345,63.0606 68,62.5C 71.5831,60.382 75.4165,58.882 79.5,58C 78.3044,57.3457 78.3044,56.8457 79.5,56.5C 80.1667,56.8333 80.8333,57.1667 81.5,57.5C 84.6566,56.2859 87.6566,55.6193 90.5,55.5 Z"/></g>
<g><path style="opacity:0.041" fill="#f2f8f3" d="M 80.5,67.5 C 78.4352,67.5172 76.4352,67.8505 74.5,68.5C 75.1342,67.0532 76.3009,66.3866 78,66.5C 79.0698,66.528 79.9032,66.8614 80.5,67.5 Z"/></g>
<g><path style="opacity:1" fill="#ac4a10" d="M 90.5,55.5 C 87.6566,55.6193 84.6566,56.2859 81.5,57.5C 80.8333,57.1667 80.1667,56.8333 79.5,56.5C 78.3044,56.8457 78.3044,57.3457 79.5,58C 75.4165,58.882 71.5831,60.382 68,62.5C 66.4345,63.0606 65.1011,62.3939 64,60.5C 62.6667,61.1667 61.6667,62.1667 61,63.5C 59.5861,62.5868 58.0861,62.5868 56.5,63.5C 63.4875,57.351 70.6542,51.351 78,45.5C 82.6319,48.3036 86.7986,51.6369 90.5,55.5 Z"/></g>
<g><path style="opacity:0.576" fill="#a5c7a5" d="M 112.5,48.5 C 114.997,48.7268 116.664,50.0602 117.5,52.5C 118.086,52.2907 118.586,51.9574 119,51.5C 120.041,53.5852 121.541,55.2519 123.5,56.5C 124.167,56.1667 124.833,55.8333 125.5,55.5C 134.958,58.2441 144.291,59.2441 153.5,58.5C 152.449,55.243 151.782,51.9097 151.5,48.5C 154.675,54.6841 156.342,61.3508 156.5,68.5C 155.835,70.6979 155.168,73.0312 154.5,75.5C 149.848,74.1198 145.348,73.1198 141,72.5C 137.995,72.792 135.328,73.1253 133,73.5C 132.683,71.6992 132.016,71.3659 131,72.5C 129.209,70.4873 127.875,70.4873 127,72.5C 124.543,68.902 122.376,65.2354 120.5,61.5C 118.586,56.6647 115.919,52.3314 112.5,48.5 Z"/></g>
<g><path style="opacity:0.129" fill="#e9f3ea" d="M 80.5,67.5 C 82.0269,67.427 83.0269,68.0937 83.5,69.5C 81.9731,69.573 80.9731,68.9063 80.5,67.5 Z"/></g>
<g><path style="opacity:0.046" fill="#edf5ee" d="M 104.5,63.5 C 110.192,65.6592 112.692,69.6592 112,75.5C 111.34,77.3237 110.173,78.657 108.5,79.5C 109.072,77.7446 109.906,76.0779 111,74.5C 111.667,73.1667 111.667,71.8333 111,70.5C 108.578,68.2504 106.411,65.9171 104.5,63.5 Z"/></g>
<g><path style="opacity:0.049" fill="#fbfdfb" d="M 73.5,69.5 C 73.0269,70.9063 72.0269,71.573 70.5,71.5C 70.9731,70.0937 71.9731,69.427 73.5,69.5 Z"/></g>
<g><path style="opacity:0.169" fill="#e8f1e6" d="M 83.5,69.5 C 85.4044,69.7376 86.7377,70.7376 87.5,72.5C 85.5956,72.2624 84.2623,71.2624 83.5,69.5 Z"/></g>
<g><path style="opacity:1" fill="#90311c" d="M 103.5,66.5 C 111.081,70.2839 111.414,74.7839 104.5,80C 103.5,80.6667 102.5,80.6667 101.5,80C 98.2896,77.2833 94.9563,74.7833 91.5,72.5C 93.2935,70.4342 95.4602,68.7675 98,67.5C 99.9088,68.3319 101.742,67.9985 103.5,66.5 Z"/></g>
<g><path style="opacity:0.061" fill="#f8fbf9" d="M 70.5,71.5 C 70.0269,72.9063 69.0269,73.573 67.5,73.5C 67.9731,72.0937 68.9731,71.427 70.5,71.5 Z"/></g>
<g><path style="opacity:0.061" fill="#f3f7f4" d="M 87.5,72.5 C 89.0269,72.427 90.0269,73.0937 90.5,74.5C 89.8333,74.5 89.1667,74.5 88.5,74.5C 88.1667,73.8333 87.8333,73.1667 87.5,72.5 Z"/></g>
<g><path style="opacity:0.051" fill="#e8f3e9" d="M 67.5,73.5 C 69.1484,74.9265 71.1484,75.7599 73.5,76C 74.8228,76.8159 75.4894,77.9826 75.5,79.5C 75.1667,79.5 74.8333,79.5 74.5,79.5C 73.3077,77.0777 71.3077,76.0777 68.5,76.5C 65.6443,76.0728 63.6443,77.0728 62.5,79.5C 62.44,78.9569 62.1067,78.6236 61.5,78.5C 60.3777,79.6302 59.0443,80.2969 57.5,80.5C 60.2749,77.3954 63.6082,75.0621 67.5,73.5 Z"/></g>
<g><path style="opacity:0.267" fill="#cbe8cf" d="M 88.5,74.5 C 89.1667,75.8333 89.8333,75.8333 90.5,74.5C 92.4044,74.7376 93.7377,75.7376 94.5,77.5C 93.6618,77.8417 93.3284,78.5084 93.5,79.5C 89.9346,76.0142 86.1013,75.6809 82,78.5C 81.5003,86.8267 81.3336,95.16 81.5,103.5C 81.1667,103.5 80.8333,103.5 80.5,103.5C 80.3336,94.8269 80.5002,86.1603 81,77.5C 83.126,75.6234 85.626,74.6234 88.5,74.5 Z"/></g>
<g><path style="opacity:0.428" fill="#d0e2d0" d="M 1.5,59.5 C 1.44954,63.1881 1.11621,66.8548 0.5,70.5C 0.488447,72.8809 1.48845,74.5475 3.5,75.5C 5.36816,75.0539 7.20149,74.7205 9,74.5C 10.2419,75.8721 11.7419,76.8721 13.5,77.5C 16.2321,73.3659 18.3987,73.6993 20,78.5C 22.3693,77.9915 25.2027,77.8248 28.5,78C 29.7155,75.9045 30.5488,76.0712 31,78.5C 31.0023,75.9488 31.8356,73.9488 33.5,72.5C 32.424,76.8097 32.424,81.143 33.5,85.5C 32.71,86.6085 32.21,87.9419 32,89.5C 30.2835,88.4477 29.2835,89.1144 29,91.5C 26.2656,90.6383 26.0989,89.805 28.5,89C 26.5858,87.8804 24.7525,87.7137 23,88.5C 21.7387,88.2409 20.7387,87.5742 20,86.5C 18.0932,86.4205 16.0932,86.7539 14,87.5C 11.9932,85.4369 9.6599,85.1036 7,86.5C 4.96578,86.6464 3.29911,85.9797 2,84.5C 1.66667,85.1667 1.33333,85.8333 1,86.5C 0.78997,84.9419 0.28997,83.6085 -0.5,82.5C -0.5,76.1667 -0.5,69.8333 -0.5,63.5C 0.166667,62.1667 0.833333,60.8333 1.5,59.5 Z"/></g>
<g><path style="opacity:0.053" fill="#f6faf6" d="M 94.5,77.5 C 96.0269,77.427 97.0269,78.0937 97.5,79.5C 95.9731,79.573 94.9731,78.9063 94.5,77.5 Z"/></g>
<g><path style="opacity:0.024" fill="#f8fbf8" d="M 62.5,79.5 C 62.3336,87.5069 62.5003,95.5069 63,103.5C 65.5463,106.186 68.713,107.186 72.5,106.5C 68.6073,108.239 65.1073,107.573 62,104.5C 61.1768,95.9896 61.3434,87.6563 62.5,79.5 Z"/></g>
<g><path style="opacity:0.722" fill="#639e5d" d="M 93.5,79.5 C 93.6664,87.1739 93.4997,94.8406 93,102.5C 90.9473,106.292 87.7806,107.458 83.5,106C 82.6195,105.292 81.9528,104.458 81.5,103.5C 81.3336,95.16 81.5003,86.8267 82,78.5C 86.1013,75.6809 89.9346,76.0142 93.5,79.5 Z"/></g>
<g><path style="opacity:0.118" fill="#eef5ee" d="M 97.5,79.5 C 99.0269,79.427 100.027,80.0937 100.5,81.5C 98.9731,81.573 97.9731,80.9063 97.5,79.5 Z"/></g>
<g><path style="opacity:0.506" fill="#bdd6bd" d="M 120.5,61.5 C 122.376,65.2354 124.543,68.902 127,72.5C 127.875,70.4873 129.209,70.4873 131,72.5C 132.016,71.3659 132.683,71.6992 133,73.5C 135.328,73.1253 137.995,72.792 141,72.5C 145.348,73.1198 149.848,74.1198 154.5,75.5C 155.168,73.0312 155.835,70.6979 156.5,68.5C 156.833,68.5 157.167,68.5 157.5,68.5C 157.5,73.1667 157.5,77.8333 157.5,82.5C 156.011,84.1161 155.011,86.1161 154.5,88.5C 152.775,89.0149 151.108,89.6816 149.5,90.5C 151.04,91.5321 151.54,92.8654 151,94.5C 149.551,93.3859 148.217,92.3859 147,91.5C 146.333,92.1667 145.667,92.8333 145,93.5C 143.667,92.1667 142.333,90.8333 141,89.5C 139.475,90.7201 137.641,91.3868 135.5,91.5C 133.359,91.3868 131.525,90.7201 130,89.5C 128.386,91.9501 126.886,91.7834 125.5,89C 126.509,87.8319 127.509,86.6652 128.5,85.5C 127.502,82.9722 126.669,82.9722 126,85.5C 125.034,81.06 124.201,76.7267 123.5,72.5C 122.629,68.8184 121.629,65.1517 120.5,61.5 Z"/></g>
<g><path style="opacity:0.059" fill="#f9fbf9" d="M 57.5,80.5 C 56.6879,81.9931 55.3545,82.6598 53.5,82.5C 52.2739,82.4805 51.2739,82.1471 50.5,81.5C 52.9029,81.552 55.2362,81.2186 57.5,80.5 Z"/></g>
<g><path style="opacity:0.054" fill="#f4f9f4" d="M 108.5,79.5 C 106.385,82.5172 103.718,83.1839 100.5,81.5C 103.451,81.7128 106.118,81.0461 108.5,79.5 Z"/></g>
<g><path style="opacity:0.816" fill="#67a161" d="M 74.5,79.5 C 74.6664,87.84 74.4997,96.1733 74,104.5C 73.2828,105.044 72.7828,105.711 72.5,106.5C 68.713,107.186 65.5463,106.186 63,103.5C 62.5003,95.5069 62.3336,87.5069 62.5,79.5C 63.6443,77.0728 65.6443,76.0728 68.5,76.5C 71.3077,76.0777 73.3077,77.0777 74.5,79.5 Z"/></g>
<g><path style="opacity:0.317" fill="#c0e4c4" d="M 74.5,79.5 C 74.8333,79.5 75.1667,79.5 75.5,79.5C 76.6561,87.3225 76.8228,95.3225 76,103.5C 75.5776,105.426 74.4109,106.426 72.5,106.5C 72.7828,105.711 73.2828,105.044 74,104.5C 74.4997,96.1733 74.6664,87.84 74.5,79.5 Z"/></g>
<g><path style="opacity:1" fill="#852c21" d="M 91.5,88.5 C 88.7167,90.0322 86.55,89.3655 85,86.5C 83.5962,92.0438 83.0962,97.7104 83.5,103.5C 82.3439,95.6775 82.1772,87.6775 83,79.5C 85.6667,76.8333 88.3333,76.8333 91,79.5C 91.498,82.4816 91.6646,85.4816 91.5,88.5 Z"/></g>
<g><path style="opacity:0.367" fill="#dce9dc" d="M -0.5,82.5 C 0.28997,83.6085 0.78997,84.9419 1,86.5C 1.33333,85.8333 1.66667,85.1667 2,84.5C 3.29911,85.9797 4.96578,86.6464 7,86.5C 9.6599,85.1036 11.9932,85.4369 14,87.5C 16.0932,86.7539 18.0932,86.4205 20,86.5C 20.7387,87.5742 21.7387,88.2409 23,88.5C 24.7525,87.7137 26.5858,87.8804 28.5,89C 26.0989,89.805 26.2656,90.6383 29,91.5C 29.2835,89.1144 30.2835,88.4477 32,89.5C 32.21,87.9419 32.71,86.6085 33.5,85.5C 34.1876,89.5837 35.1876,93.5837 36.5,97.5C 35.8519,99.0858 35.3519,100.753 35,102.5C 34.0723,100.665 32.9056,100.332 31.5,101.5C 29.8306,100.11 28.1639,99.7769 26.5,100.5C 24.5,99.8333 22.5,99.1667 20.5,98.5C 19.5224,98.9767 18.6891,99.6433 18,100.5C 16.1825,98.4855 14.1825,97.4855 12,97.5C 11.5756,101.19 10.7423,101.357 9.5,98C 7.19018,97.5034 4.85684,97.3367 2.5,97.5C 2.71481,95.8212 2.04814,94.8212 0.5,94.5C 0.67158,93.5084 0.338246,92.8417 -0.5,92.5C -0.5,89.1667 -0.5,85.8333 -0.5,82.5 Z"/></g>
<g><path style="opacity:1" fill="#852a22" d="M 65.5,77.5 C 68.3646,77.0548 70.8646,77.7215 73,79.5C 73.6667,87.5 73.6667,95.5 73,103.5C 70.3333,106.167 67.6667,106.167 65,103.5C 64.1977,94.7551 64.3643,86.0884 65.5,77.5 Z"/></g>
<g><path style="opacity:0.428" fill="#cfe1cf" d="M 123.5,72.5 C 124.201,76.7267 125.034,81.06 126,85.5C 126.669,82.9722 127.502,82.9722 128.5,85.5C 127.509,86.6652 126.509,87.8319 125.5,89C 126.886,91.7834 128.386,91.9501 130,89.5C 131.525,90.7201 133.359,91.3868 135.5,91.5C 137.641,91.3868 139.475,90.7201 141,89.5C 142.333,90.8333 143.667,92.1667 145,93.5C 145.667,92.8333 146.333,92.1667 147,91.5C 148.217,92.3859 149.551,93.3859 151,94.5C 151.54,92.8654 151.04,91.5321 149.5,90.5C 151.108,89.6816 152.775,89.0149 154.5,88.5C 155.011,86.1161 156.011,84.1161 157.5,82.5C 157.5,84.1667 157.5,85.8333 157.5,87.5C 156.419,90.6267 155.753,93.9601 155.5,97.5C 153.742,99.1407 152.242,101.141 151,103.5C 147.406,102.673 143.739,102.007 140,101.5C 138.893,101.585 137.893,101.919 137,102.5C 135.847,100.503 134.347,100.17 132.5,101.5C 133.025,102.192 133.692,102.692 134.5,103C 132.094,103.779 130.427,102.946 129.5,100.5C 127.447,102.936 125.614,102.602 124,99.5C 123.282,100.451 122.449,100.617 121.5,100C 120.62,98.6439 120.286,97.1439 120.5,95.5C 122.873,88.0312 123.873,80.3645 123.5,72.5 Z"/></g>
<g><path style="opacity:1" fill="#7a1c25" d="M 91.5,88.5 C 91.6659,93.5111 91.4993,98.5111 91,103.5C 88.3794,106.14 85.8794,106.14 83.5,103.5C 83.0962,97.7104 83.5962,92.0438 85,86.5C 86.55,89.3655 88.7167,90.0322 91.5,88.5 Z"/></g>
<g><path style="opacity:0.305" fill="#e8f0e8" d="M 0.5,94.5 C 2.04814,94.8212 2.71481,95.8212 2.5,97.5C 4.85684,97.3367 7.19018,97.5034 9.5,98C 10.7423,101.357 11.5756,101.19 12,97.5C 14.1825,97.4855 16.1825,98.4855 18,100.5C 18.6891,99.6433 19.5224,98.9767 20.5,98.5C 22.5,99.1667 24.5,99.8333 26.5,100.5C 28.1639,99.7769 29.8306,100.11 31.5,101.5C 32.9056,100.332 34.0723,100.665 35,102.5C 35.3519,100.753 35.8519,99.0858 36.5,97.5C 40.4413,103.774 45.1079,109.44 50.5,114.5C 48.1667,115.167 45.8333,115.833 43.5,116.5C 42.213,115.232 41.213,115.565 40.5,117.5C 39.7492,116.624 39.2492,115.624 39,114.5C 37.3483,115.068 35.6816,116.401 34,118.5C 33.3162,117.216 33.4829,116.049 34.5,115C 31.708,114.681 28.708,114.181 25.5,113.5C 24.1667,113.667 22.8333,113.833 21.5,114C 21.8333,114.333 22.1667,114.667 22.5,115C 18.5138,115.499 14.5138,115.666 10.5,115.5C 10.1667,115.5 9.83333,115.5 9.5,115.5C 8.83333,115.167 8.16667,114.833 7.5,114.5C 4.03802,108.24 1.70469,101.573 0.5,94.5 Z"/></g>
<g><path style="opacity:0.368" fill="#dbe8db" d="M 120.5,95.5 C 120.286,97.1439 120.62,98.6439 121.5,100C 122.449,100.617 123.282,100.451 124,99.5C 125.614,102.602 127.447,102.936 129.5,100.5C 130.427,102.946 132.094,103.779 134.5,103C 133.692,102.692 133.025,102.192 132.5,101.5C 134.347,100.17 135.847,100.503 137,102.5C 137.893,101.919 138.893,101.585 140,101.5C 143.739,102.007 147.406,102.673 151,103.5C 152.242,101.141 153.742,99.1407 155.5,97.5C 153.753,103.409 151.419,109.075 148.5,114.5C 147.432,115.434 146.099,115.768 144.5,115.5C 144.784,117.415 144.451,119.081 143.5,120.5C 143.917,117.921 143.25,115.754 141.5,114C 134.086,114.013 126.92,112.846 120,110.5C 113.068,112.829 111.568,111.329 115.5,106C 115.272,105.601 114.938,105.435 114.5,105.5C 116.515,102.131 118.515,98.7976 120.5,95.5 Z"/></g>
<g><path style="opacity:0.033" fill="#f2f8f1" d="M 93.5,79.5 C 94.1656,83.3188 94.4989,87.3188 94.5,91.5C 94.6094,96.2778 94.1094,100.944 93,105.5C 89.8169,107.523 86.3169,108.023 82.5,107C 81.1772,106.184 80.5106,105.017 80.5,103.5C 80.8333,103.5 81.1667,103.5 81.5,103.5C 81.9528,104.458 82.6195,105.292 83.5,106C 87.7806,107.458 90.9473,106.292 93,102.5C 93.4997,94.8406 93.6664,87.1739 93.5,79.5 Z"/></g>
<g><path style="opacity:0.326" fill="#e8f1e8" d="M 114.5,105.5 C 114.938,105.435 115.272,105.601 115.5,106C 111.568,111.329 113.068,112.829 120,110.5C 126.92,112.846 134.086,114.013 141.5,114C 143.25,115.754 143.917,117.921 143.5,120.5C 143.5,121.5 143.5,122.5 143.5,123.5C 142.833,123.5 142.5,123.833 142.5,124.5C 140.861,126.806 138.861,128.806 136.5,130.5C 137.812,126.584 138.812,122.584 139.5,118.5C 140.434,117.432 140.768,116.099 140.5,114.5C 135.833,114.5 131.167,114.5 126.5,114.5C 126.5,115.833 126.5,117.167 126.5,118.5C 129.167,118.5 131.833,118.5 134.5,118.5C 133.488,121.252 132.488,123.919 131.5,126.5C 131.565,126.062 131.399,125.728 131,125.5C 129.969,129.8 127.802,130.467 124.5,127.5C 122.295,128.374 120.462,127.708 119,125.5C 118.667,125.833 118.333,126.167 118,126.5C 116.292,123.017 115.126,120.017 114.5,117.5C 112.886,115.925 110.886,115.259 108.5,115.5C 108.443,114.391 108.11,113.391 107.5,112.5C 110.194,110.473 112.527,108.139 114.5,105.5 Z"/></g>
<g><path style="opacity:0.083" fill="#afafaf" d="M 5.5,114.5 C 5.19679,123.251 5.53013,131.918 6.5,140.5C 5.17453,136.555 4.50786,132.222 4.5,127.5C 4.50093,122.987 4.83426,118.653 5.5,114.5 Z"/></g>
<g><path style="opacity:0.427" fill="#b7c2b7" d="M 139.5,118.5 C 139.5,117.5 139.5,116.5 139.5,115.5C 135.445,115.176 131.445,115.509 127.5,116.5C 129.969,117.168 132.302,117.835 134.5,118.5C 131.833,118.5 129.167,118.5 126.5,118.5C 126.5,117.167 126.5,115.833 126.5,114.5C 131.167,114.5 135.833,114.5 140.5,114.5C 140.768,116.099 140.434,117.432 139.5,118.5 Z"/></g>
<g><path style="opacity:0.999" fill="#505050" d="M 6.5,114.5 C 6.83333,114.5 7.16667,114.5 7.5,114.5C 8.16667,114.833 8.83333,115.167 9.5,115.5C 9.5,123.167 9.5,130.833 9.5,138.5C 8.5,138.5 7.5,138.5 6.5,138.5C 6.5,130.5 6.5,122.5 6.5,114.5 Z"/></g>
<g><path style="opacity:1" fill="#767b76" d="M 50.5,114.5 C 52.1667,114.5 53.8333,114.5 55.5,114.5C 55.5,115.5 55.5,116.5 55.5,117.5C 53.283,118.369 50.9496,118.702 48.5,118.5C 48.5,120.833 48.5,123.167 48.5,125.5C 50.1667,125.5 51.8333,125.5 53.5,125.5C 53.5,126.5 53.5,127.5 53.5,128.5C 51.8333,128.5 50.1667,128.5 48.5,128.5C 48.5,132.167 48.5,135.833 48.5,139.5C 46.8333,139.5 45.1667,139.5 43.5,139.5C 43.5,131.833 43.5,124.167 43.5,116.5C 45.8333,115.833 48.1667,115.167 50.5,114.5 Z"/></g>
<g><path style="opacity:0.997" fill="#747b74" d="M 139.5,118.5 C 138.812,122.584 137.812,126.584 136.5,130.5C 135.826,133.526 134.993,136.526 134,139.5C 131.959,140.423 129.792,140.756 127.5,140.5C 128.836,135.821 130.169,131.155 131.5,126.5C 132.488,123.919 133.488,121.252 134.5,118.5C 132.302,117.835 129.969,117.168 127.5,116.5C 131.445,115.509 135.445,115.176 139.5,115.5C 139.5,116.5 139.5,117.5 139.5,118.5 Z"/></g>
<g><path style="opacity:0.361" fill="#bbbbbb" d="M 155.5,114.5 C 156.434,115.568 156.768,116.901 156.5,118.5C 154.167,118.5 151.833,118.5 149.5,118.5C 149.366,120.292 149.699,121.958 150.5,123.5C 148.692,122.082 148.025,120.082 148.5,117.5C 150.833,117.5 153.167,117.5 155.5,117.5C 155.5,116.5 155.5,115.5 155.5,114.5 Z"/></g>
<g><path style="opacity:0.404" fill="#757575" d="M 5.5,114.5 C 5.83333,114.5 6.16667,114.5 6.5,114.5C 6.5,122.5 6.5,130.5 6.5,138.5C 7.5,138.5 8.5,138.5 9.5,138.5C 9.5,130.833 9.5,123.167 9.5,115.5C 9.83333,115.5 10.1667,115.5 10.5,115.5C 10.5,116.833 10.5,118.167 10.5,119.5C 10.5,126.5 10.5,133.5 10.5,140.5C 9.16667,140.5 7.83333,140.5 6.5,140.5C 5.53013,131.918 5.19679,123.251 5.5,114.5 Z"/></g>
<g><path style="opacity:1" fill="#838b83" d="M 108.5,115.5 C 110.886,115.259 112.886,115.925 114.5,117.5C 114.665,120.518 114.498,123.518 114,126.5C 108.904,129.768 106.404,128.268 106.5,122C 106.336,119.456 107.003,117.29 108.5,115.5 Z"/></g>
<g><path style="opacity:1" fill="#777b77" d="M 95.5,119.5 C 96.9734,122.447 98.4734,125.447 100,128.5C 100.499,124.848 100.665,121.182 100.5,117.5C 100.5,116.5 100.5,115.5 100.5,114.5C 101.791,114.263 102.791,114.596 103.5,115.5C 103.5,123.5 103.5,131.5 103.5,139.5C 102.178,139.67 101.011,139.337 100,138.5C 97.6667,134.5 95.3333,130.5 93,126.5C 92.501,130.821 92.3343,135.154 92.5,139.5C 91.5,139.5 90.5,139.5 89.5,139.5C 89.5,133.833 89.5,128.167 89.5,122.5C 89.5,119.833 89.5,117.167 89.5,114.5C 92.6905,114.687 94.6905,116.354 95.5,119.5 Z"/></g>
<g><path style="opacity:0.289" fill="#f2f6f2" d="M 100.5,117.5 C 100.665,121.182 100.499,124.848 100,128.5C 98.4734,125.447 96.9734,122.447 95.5,119.5C 97.2838,119.107 98.9505,118.441 100.5,117.5 Z"/></g>
<g><path style="opacity:0.214" fill="#f4f8f4" d="M 43.5,116.5 C 43.5,124.167 43.5,131.833 43.5,139.5C 45.1667,139.5 46.8333,139.5 48.5,139.5C 48.5,135.833 48.5,132.167 48.5,128.5C 50.1667,128.5 51.8333,128.5 53.5,128.5C 53.5,127.5 53.5,126.5 53.5,125.5C 51.8333,125.5 50.1667,125.5 48.5,125.5C 48.5,123.167 48.5,120.833 48.5,118.5C 50.9496,118.702 53.283,118.369 55.5,117.5C 57.5,118.5 59.5,119.5 61.5,120.5C 61.8288,126.206 61.4954,131.872 60.5,137.5C 59.4822,136.807 58.4822,136.141 57.5,135.5C 54.1919,133.716 52.5253,134.716 52.5,138.5C 51.1974,140.757 51.864,142.59 54.5,144C 54.0698,144.92 53.7365,145.753 53.5,146.5C 51.5241,141.427 48.0241,139.76 43,141.5C 40.723,140.883 38.5563,140.216 36.5,139.5C 37.8333,139.5 39.1667,139.5 40.5,139.5C 40.634,137.708 40.3007,136.042 39.5,134.5C 38.1155,133.199 36.6155,133.199 35,134.5C 34.9504,132.256 34.1171,130.589 32.5,129.5C 28.5973,126.68 25.9306,123.013 24.5,118.5C 27.9496,117.756 29.6162,119.09 29.5,122.5C 30.5,122.5 31.5,122.5 32.5,122.5C 32.8201,116.003 29.8201,113.836 23.5,116C 20.7104,118.21 19.877,121.044 21,124.5C 23.2954,127.797 25.962,130.797 29,133.5C 29.4828,134.448 29.6495,135.448 29.5,136.5C 28.1667,136.5 26.8333,136.5 25.5,136.5C 25.5,135.833 25.1667,135.5 24.5,135.5C 24.5,134.833 24.1667,134.5 23.5,134.5C 23.1667,133.5 22.5,132.833 21.5,132.5C 17.1312,128.763 13.4645,124.43 10.5,119.5C 10.5,118.167 10.5,116.833 10.5,115.5C 14.5138,115.666 18.5138,115.499 22.5,115C 22.1667,114.667 21.8333,114.333 21.5,114C 22.8333,113.833 24.1667,113.667 25.5,113.5C 28.708,114.181 31.708,114.681 34.5,115C 33.4829,116.049 33.3162,117.216 34,118.5C 35.6816,116.401 37.3483,115.068 39,114.5C 39.2492,115.624 39.7492,116.624 40.5,117.5C 41.213,115.565 42.213,115.232 43.5,116.5 Z"/></g>
<g><path style="opacity:1" fill="#676767" d="M 148.5,114.5 C 150.833,114.5 153.167,114.5 155.5,114.5C 155.5,115.5 155.5,116.5 155.5,117.5C 153.167,117.5 150.833,117.5 148.5,117.5C 148.025,120.082 148.692,122.082 150.5,123.5C 153.652,123.571 155.986,124.905 157.5,127.5C 157.5,130.5 157.5,133.5 157.5,136.5C 150.782,142.603 145.449,141.603 141.5,133.5C 142.723,132.386 144.056,132.219 145.5,133C 148.452,137.8 150.785,137.467 152.5,132C 151.833,130.333 151.167,128.667 150.5,127C 147.881,127.083 145.214,127.25 142.5,127.5C 142.5,126.5 142.5,125.5 142.5,124.5C 143.167,124.5 143.5,124.167 143.5,123.5C 143.5,122.5 143.5,121.5 143.5,120.5C 144.451,119.081 144.784,117.415 144.5,115.5C 146.099,115.768 147.432,115.434 148.5,114.5 Z"/></g>
<g><path style="opacity:1" fill="#737673" d="M 32.5,129.5 C 32.6641,132.187 32.4974,134.854 32,137.5C 31.0053,138.066 30.172,138.733 29.5,139.5C 24.2851,141.559 20.9518,139.893 19.5,134.5C 19.7472,133.287 20.4138,132.62 21.5,132.5C 22.5,132.833 23.1667,133.5 23.5,134.5C 24.1667,134.5 24.5,134.833 24.5,135.5C 25.1667,135.5 25.5,135.833 25.5,136.5C 26.8333,136.5 28.1667,136.5 29.5,136.5C 29.6495,135.448 29.4828,134.448 29,133.5C 25.962,130.797 23.2954,127.797 21,124.5C 19.877,121.044 20.7104,118.21 23.5,116C 29.8201,113.836 32.8201,116.003 32.5,122.5C 31.5,122.5 30.5,122.5 29.5,122.5C 29.6162,119.09 27.9496,117.756 24.5,118.5C 25.9306,123.013 28.5973,126.68 32.5,129.5 Z"/></g>
<g><path style="opacity:0.113" fill="#fafcfa" d="M 63.5,119.5 C 63.5,126.167 63.5,132.833 63.5,139.5C 65.1667,139.5 66.8333,139.5 68.5,139.5C 68.5,133.833 68.5,128.167 68.5,122.5C 75.4898,123.646 82.4898,123.646 89.5,122.5C 89.5,128.167 89.5,133.833 89.5,139.5C 89.6399,141.124 88.9733,142.29 87.5,143C 93.0235,142.653 95.8568,145.153 96,150.5C 96.3333,149.167 96.6667,147.833 97,146.5C 99.2342,146.374 101.568,146.707 104,147.5C 106.352,142.585 109.186,142.251 112.5,146.5C 113.251,145.624 113.751,144.624 114,143.5C 115.303,145.053 115.136,146.72 113.5,148.5C 106.797,152.021 99.797,154.688 92.5,156.5C 83.1667,156.5 73.8333,156.5 64.5,156.5C 54.2295,154.351 44.5628,150.518 35.5,145C 33.2368,143.383 31.2368,141.55 29.5,139.5C 30.172,138.733 31.0053,138.066 32,137.5C 32.4974,134.854 32.6641,132.187 32.5,129.5C 34.1171,130.589 34.9504,132.256 35,134.5C 36.6155,133.199 38.1155,133.199 39.5,134.5C 35.7271,134.657 34.7271,136.324 36.5,139.5C 38.5563,140.216 40.723,140.883 43,141.5C 48.0241,139.76 51.5241,141.427 53.5,146.5C 53.7365,145.753 54.0698,144.92 54.5,144C 51.864,142.59 51.1974,140.757 52.5,138.5C 53.9187,139.451 55.5853,139.784 57.5,139.5C 57.5,138.167 57.5,136.833 57.5,135.5C 58.4822,136.141 59.4822,136.807 60.5,137.5C 61.4954,131.872 61.8288,126.206 61.5,120.5C 62.1667,120.167 62.8333,119.833 63.5,119.5 Z"/></g>
<g><path style="opacity:1" fill="#7b7f7b" d="M 60.5,114.5 C 60.5,115.5 60.5,116.5 60.5,117.5C 61.8333,117.5 63.1667,117.5 64.5,117.5C 64.5,119.167 64.5,120.833 64.5,122.5C 65.5,122.5 66.5,122.5 67.5,122.5C 67.5,120.833 67.5,119.167 67.5,117.5C 68.8333,117.5 70.1667,117.5 71.5,117.5C 71.5,116.5 71.5,115.5 71.5,114.5C 72.4345,115.568 72.7678,116.901 72.5,118.5C 71.1667,118.5 69.8333,118.5 68.5,118.5C 68.5,119.833 68.5,121.167 68.5,122.5C 68.5,128.167 68.5,133.833 68.5,139.5C 66.8333,139.5 65.1667,139.5 63.5,139.5C 63.5,132.833 63.5,126.167 63.5,119.5C 62.4324,118.566 61.099,118.232 59.5,118.5C 59.2322,116.901 59.5655,115.568 60.5,114.5 Z"/></g>
<g><path style="opacity:0.992" fill="#515151" d="M 60.5,114.5 C 64.1667,114.5 67.8333,114.5 71.5,114.5C 71.5,115.5 71.5,116.5 71.5,117.5C 70.1667,117.5 68.8333,117.5 67.5,117.5C 67.5,119.167 67.5,120.833 67.5,122.5C 66.5,122.5 65.5,122.5 64.5,122.5C 64.5,120.833 64.5,119.167 64.5,117.5C 63.1667,117.5 61.8333,117.5 60.5,117.5C 60.5,116.5 60.5,115.5 60.5,114.5 Z"/></g>
<g><path style="opacity:1" fill="#6a6a6a" d="M 13.5,134.5 C 18.1584,134.653 19.1584,136.486 16.5,140C 12.5369,140.118 11.5369,138.284 13.5,134.5 Z"/></g>
<g><path style="opacity:1" fill="#7b7d7b" d="M 39.5,134.5 C 40.3007,136.042 40.634,137.708 40.5,139.5C 39.1667,139.5 37.8333,139.5 36.5,139.5C 34.7271,136.324 35.7271,134.657 39.5,134.5 Z"/></g>
<g><path style="opacity:1" fill="#7d807d" d="M 57.5,135.5 C 57.5,136.833 57.5,138.167 57.5,139.5C 55.5853,139.784 53.9187,139.451 52.5,138.5C 52.5253,134.716 54.1919,133.716 57.5,135.5 Z"/></g>
<g><path style="opacity:1" fill="#7e827e" d="M 73.5,134.5 C 74.5,134.5 75.5,134.5 76.5,134.5C 76.5,136.167 76.5,137.833 76.5,139.5C 71.5162,139.856 70.5162,138.189 73.5,134.5 Z"/></g>
<g><path style="opacity:0.183" fill="#f4f7f4" d="M 107.5,112.5 C 108.11,113.391 108.443,114.391 108.5,115.5C 107.003,117.29 106.336,119.456 106.5,122C 106.404,128.268 108.904,129.768 114,126.5C 114.498,123.518 114.665,120.518 114.5,117.5C 115.126,120.017 116.292,123.017 118,126.5C 118.333,126.167 118.667,125.833 119,125.5C 120.462,127.708 122.295,128.374 124.5,127.5C 127.802,130.467 129.969,129.8 131,125.5C 131.399,125.728 131.565,126.062 131.5,126.5C 130.169,131.155 128.836,135.821 127.5,140.5C 123.091,143.567 118.424,146.233 113.5,148.5C 115.136,146.72 115.303,145.053 114,143.5C 113.751,144.624 113.251,145.624 112.5,146.5C 109.186,142.251 106.352,142.585 104,147.5C 101.568,146.707 99.2342,146.374 97,146.5C 96.6667,147.833 96.3333,149.167 96,150.5C 95.8568,145.153 93.0235,142.653 87.5,143C 88.9733,142.29 89.6399,141.124 89.5,139.5C 90.5,139.5 91.5,139.5 92.5,139.5C 92.3343,135.154 92.501,130.821 93,126.5C 95.3333,130.5 97.6667,134.5 100,138.5C 101.011,139.337 102.178,139.67 103.5,139.5C 103.5,131.5 103.5,123.5 103.5,115.5C 104.833,114.5 106.167,113.5 107.5,112.5 Z"/></g>
</svg>
